<svg
    xmlns="http://www.w3.org/2000/svg"
    viewBox="0 0 24 24"
    fill="none"
>

    <path
        d="M12 2C6.48 2 2 6.58 2 12.22C2 16.72 4.87 20.54 8.84 21.89C9.34 21.99 9.52 21.67 9.52 21.39V19.73C6.73 20.35 6.14 18.52 6.14 18.52C5.68 17.32 5.03 17 5.03 17C4.12 16.36 5.1 16.37 5.1 16.37C6.1 16.44 6.63 17.43 6.63 17.43C7.52 19 8.97 18.55 9.54 18.29C9.64 17.63 9.89 17.18 10.17 16.92C7.94 16.66 5.6 15.78 5.6 11.86C5.6 10.74 6 9.82 6.66 9.1C6.55 8.84 6.21 7.79 6.76 6.38C6.76 6.38 7.6 6.11 9.5 7.44C10.29 7.22 11.15 7.11 12 7.11C12.85 7.11 13.71 7.22 14.5 7.44C16.4 6.11 17.24 6.38 17.24 6.38C17.79 7.79 17.45 8.84 17.34 9.1C18 9.82 18.4 10.74 18.4 11.86C18.4 15.79 16.05 16.66 13.81 16.91C14.17 17.24 14.5 17.89 14.5 18.89V21.39C14.5 21.67 14.68 22 15.19 21.89C19.15 20.54 22 16.72 22 12.22C22 6.58 17.52 2 12 2Z"
        fill="white"
    />

</svg>