<svg
    xmlns="http://www.w3.org/2000/svg"
    viewBox="0 0 24 24"
    fill="none"
>

    <path
        d="M6.94 8.5H3.56V20H6.94V8.5Z"
        fill="white"
    />

    <path
        d="M5.25 7C6.35 7 7.25 6.1 7.25 5C7.25 3.9 6.35 3 5.25 3C4.15 3 3.25 3.9 3.25 5C3.25 6.1 4.15 7 5.25 7Z"
        fill="white"
    />

    <path
        d="M20 20V13.7C20 10.6 18.3 8.5 15.2 8.5C13.7 8.5 12.7 9.3 12.2 10V8.5H9V20H12.4V13.8C12.4 12.2 13.3 11.3 14.6 11.3C15.9 11.3 16.6 12.2 16.6 13.8V20H20Z"
        fill="white"
    />

</svg>